<svg width="100" height="100" viewBox="0 0 100 100" fill="none" xmlns="http://www.w3.org/2000/svg">
<path d="M54.2967 5.59669H11.5887V15.1933H54.2967V5.59669Z" fill="#F2B851"/>
<path d="M63.7402 27.8866V14.0808H17.5604C15.4104 14.0808 13.6636 12.3246 13.6636 10.1653C13.6636 8.006 15.4136 6.2498 17.5604 6.2498H61.6496V0H17.5604C11.9668 0 7.41382 4.55923 7.41382 10.1653V59.3169C7.41382 63.7449 8.66065 67.1417 11.12 69.4135C13.7824 71.8759 16.9323 72.1134 17.9729 72.1134C18.1666 72.1134 18.2885 72.104 18.3166 72.1009H36.2567V65.8511" fill="#25B6D2"/>
<path d="M83.5833 33.1052H40.8753V42.7018H83.5833V33.1052Z" fill="#F2B851"/>
<path d="M56.0248 19.2806C55.7311 19.0088 48.9219 12.5527 55.4498 1.50932L60.8278 4.69047C57.0217 11.134 59.9559 14.3745 60.2997 14.7245L56.0248 19.2806Z" fill="#25B6D2"/>
<path d="M88.6582 41.9643C87.9395 40.8487 86.9895 38.2707 88.8957 34.1333H90.4956V27.8835H63.7402H57.4904H46.4064C40.8128 27.8835 36.2598 32.4427 36.2598 38.0488V65.8542V72.104V87.2035C36.2598 91.6315 37.5067 95.0283 39.9691 97.3001C42.6284 99.7625 45.7783 100 46.8189 100C47.0126 100 47.1345 99.9906 47.1626 99.9875H92.5862V41.9643H88.6582ZM46.4064 41.9643C44.2565 41.9643 42.5096 40.2081 42.5096 38.0488C42.5096 35.8895 44.2596 34.1333 46.4064 34.1333H82.1896C81.2365 37.2832 81.3709 39.9112 81.9334 41.9643H46.4064Z" fill="#E04F5F"/>
</svg>
