<svg width="80" height="80" viewBox="0 0 80 80" fill="none" xmlns="http://www.w3.org/2000/svg">
<g clip-path="url(#clip0_4_55)">
<path fill-rule="evenodd" clip-rule="evenodd" d="M40.2966 10.9153C67.8449 10.9153 57.1083 56.5672 40.2966 56.5672C24.4182 56.5672 12.7483 10.9153 40.2966 10.9153Z" fill="#FFE8BE"/>
<path d="M40 80C62.0914 80 80 62.0914 80 40C80 17.9086 62.0914 0 40 0C17.9086 0 0 17.9086 0 40C0 62.0914 17.9086 80 40 80Z" fill="#58B0E0"/>
<path fill-rule="evenodd" clip-rule="evenodd" d="M58.883 25.8732L21.1185 26.0998C21.1185 26.0998 22.4752 47.0034 17.7282 53.5562H63.9432C62.7523 51.8086 59.6028 51.2455 58.883 25.8732Z" fill="#60350A"/>
<path fill-rule="evenodd" clip-rule="evenodd" d="M23.4758 59.028L32.804 54.9024L47.7555 54.5141L57.3607 59.5588L50.4261 74.0766L40.571 79.3686L30.3768 73.7375L23.4758 59.028Z" fill="#D5E1ED"/>
<path fill-rule="evenodd" clip-rule="evenodd" d="M32.0312 50.0714L48.7704 50.1801V61.7646L32.0312 61.6546V50.0714Z" fill="#F9DCA4"/>
<path opacity="0.11" fill-rule="evenodd" clip-rule="evenodd" d="M48.773 50.1982V54.8326C48.7912 55.3621 48.7739 55.8923 48.7212 56.4196C48.6432 57.0042 48.5075 57.5796 48.316 58.1374C42.6591 63.529 33.5859 59.1471 32.1477 49.9393L48.773 50.1982Z" fill="black"/>
<path fill-rule="evenodd" clip-rule="evenodd" d="M68.3459 68.2216C64.5981 71.9863 60.1379 74.9667 55.2256 76.9889C50.3134 79.011 45.0475 80.0342 39.7355 79.9989C34.4234 79.9636 29.1716 78.8704 24.2867 76.7832C19.4018 74.696 14.9816 71.6565 11.2842 67.8423L12.8648 63.8319L24.6486 58.496C28.8713 66.2371 33.4642 73.4138 40.593 78.5025C47.0461 73.1311 52.2733 66.4394 55.9225 58.8779L66.4649 63.8656L68.3459 68.2216Z" fill="#434955"/>
<path fill-rule="evenodd" clip-rule="evenodd" d="M24.7379 31.3049C20.9088 32.9748 24.1658 40.8972 26.5761 40.8622C25.5759 37.7634 24.9586 34.5537 24.7379 31.3049Z" fill="#F9DCA4"/>
<path fill-rule="evenodd" clip-rule="evenodd" d="M56.3199 31.3036C60.1517 32.9761 56.8934 40.8972 54.483 40.8623C55.483 37.7629 56.0999 34.5529 56.3199 31.3036Z" fill="#F9DCA4"/>
<path fill-rule="evenodd" clip-rule="evenodd" d="M40.2771 11.2182C51.5678 11.2182 56.2992 19.2441 56.5892 28.5218C56.9866 41.2209 49.2429 56.263 40.2784 56.263C31.7865 56.263 23.8305 40.7056 24.3133 27.8771C24.6499 18.8764 29.2506 11.2182 40.2771 11.2182Z" fill="#FFE8BE"/>
<path fill-rule="evenodd" clip-rule="evenodd" d="M43.2351 32.3406C45.2578 31.1049 47.6612 30.648 49.9963 31.0551H50.0027C56.6746 31.8707 56.7782 33.9444 56.1296 34.4221C55.6955 34.7809 55.3481 35.2331 55.1134 35.7451C54.9685 37.0967 54.5015 38.3938 53.7516 39.5276C53.2523 40.3099 52.5958 40.9799 51.8239 41.4951C51.052 42.0103 50.1814 42.3595 49.2675 42.5205C49.05 42.5555 48.8273 42.5827 48.5995 42.5956C47.7088 42.6595 46.8157 42.5103 45.994 42.1605C45.1724 41.8107 44.4459 41.2703 43.8746 40.584C43.0483 39.6139 42.4005 38.505 41.9613 37.3089V37.3127C41.9613 37.3127 40.9296 35.1949 39.2791 37.1652C38.8357 38.4142 38.169 39.5722 37.3114 40.5827C36.74 41.2692 36.0133 41.8099 35.1914 42.1599C34.3696 42.5099 33.4762 42.6593 32.5852 42.5956C32.3614 42.5816 32.1385 42.5566 31.9172 42.5205C31.0033 42.3594 30.1328 42.0102 29.3609 41.495C28.589 40.9798 27.9325 40.3098 27.4331 39.5276C26.6835 38.3942 26.2165 37.0975 26.0713 35.7464C25.8478 35.2327 25.5063 34.779 25.0745 34.4221C24.4272 33.9432 24.5243 31.8681 31.1962 31.0525H31.1988C33.5436 30.6475 35.9557 31.1124 37.982 32.36L37.9807 32.3587L37.9846 32.3613L38.2629 32.5308C39.0389 32.9276 39.9038 33.1183 40.7747 33.0848C41.6455 33.0512 42.4932 32.7945 43.2364 32.3393L43.2351 32.3406ZM37.1872 33.1665C35.9841 32.4716 34.6305 32.0788 33.2423 32.0218C31.8542 31.9648 30.4729 32.2451 29.2169 32.8389C27.2609 33.727 26.6641 34.3535 27.4227 36.9335C27.6282 37.6372 27.939 38.3058 28.3444 38.9166C28.802 39.6612 29.4321 40.2846 30.1816 40.7341C30.931 41.1836 31.7776 41.446 32.6499 41.4992C33.3747 41.5491 34.1008 41.4258 34.7685 41.1394C35.4361 40.8531 36.026 40.412 36.4894 39.8526C37.2569 38.9447 37.8534 37.9052 38.2499 36.7846C39.1289 34.4804 39.3658 34.3729 37.1885 33.1665H37.1872ZM51.3581 32.5839C50.1162 32.1174 48.7842 31.9408 47.4637 32.0676C46.1432 32.1943 44.8691 32.6211 43.7386 33.3153C41.7477 34.4946 42.1102 34.6914 42.9904 36.927C43.382 37.9947 43.9586 38.985 44.694 39.8526C45.1575 40.4122 45.7476 40.8534 46.4155 41.1397C47.0834 41.4261 47.8098 41.5493 48.5348 41.4992C48.7213 41.488 48.907 41.4672 49.0914 41.437C49.8567 41.2992 50.585 41.0041 51.2303 40.5702C51.8756 40.1364 52.4238 39.5733 52.8403 38.9166C53.2229 38.3407 53.5211 37.713 53.7257 37.0525C54.6345 34.1399 53.8241 33.4914 51.3594 32.5852L51.3581 32.5839Z" fill="#464449"/>
<path fill-rule="evenodd" clip-rule="evenodd" d="M23.1587 33.1496C23.1587 32.3237 24.4325 32.0027 25.2273 36.9593C25.8691 34.9347 26.2842 32.8451 26.4648 30.7289C27.969 31.0202 29.4137 34.4156 28.9593 37.393C33.0577 36.3872 43.5911 30.0312 47.0163 21.4395C55.7827 26.4894 55.7348 37.0953 55.7348 37.0953C55.7348 37.0953 56.1983 34.6357 56.4572 32.5438C56.5426 31.8473 56.8364 31.5949 57.4902 32.2681C62.2306 22.4506 54.7575 7.44338 40.5141 7.21037C20.9567 6.89192 18.4687 28.07 23.16 33.1509L23.1587 33.1496Z" fill="#8A5C42"/>
<path fill-rule="evenodd" clip-rule="evenodd" d="M32.0583 54.9271C34.1036 57.9749 37.0188 60.3367 40.4247 61.7051L34.9774 69.6585L27.3179 56.9983L32.0583 54.9271Z" fill="white"/>
<path fill-rule="evenodd" clip-rule="evenodd" d="M48.7795 54.9271C46.7341 57.9749 43.8189 60.3366 40.4131 61.7051L45.8616 69.6585L53.5678 57.1433L48.7795 54.9271Z" fill="white"/>
<path d="M40.4184 69.1281C41.0182 69.1281 41.5045 68.6418 41.5045 68.042C41.5045 67.4421 41.0182 66.9558 40.4184 66.9558C39.8185 66.9558 39.3322 67.4421 39.3322 68.042C39.3322 68.6418 39.8185 69.1281 40.4184 69.1281Z" fill="#434955"/>
<path d="M40.4184 73.9553C41.0182 73.9553 41.5045 73.469 41.5045 72.8691C41.5045 72.2692 41.0182 71.783 40.4184 71.783C39.8185 71.783 39.3322 72.2692 39.3322 72.8691C39.3322 73.469 39.8185 73.9553 40.4184 73.9553Z" fill="#434955"/>
<path fill-rule="evenodd" clip-rule="evenodd" d="M54.3652 32.0221C56.6746 32.9438 56.5905 34.0687 56.1348 34.4053C55.7007 34.764 55.3533 35.2163 55.1186 35.7283C55.0175 36.6636 54.7629 37.576 54.3652 38.4286V32.0221ZM26.5735 37.8202C26.3208 37.1469 26.1538 36.4445 26.0765 35.7296C25.8531 35.2158 25.5116 34.7621 25.0797 34.4053C24.6434 34.0829 24.5451 33.0331 26.5735 32.1347V37.8202Z" fill="#464449"/>
</g>
<defs>
<clipPath id="clip0_4_55">
<rect width="80" height="80" fill="white"/>
</clipPath>
</defs>
</svg>
