<svg width="80" height="80" viewBox="0 0 80 80" fill="none" xmlns="http://www.w3.org/2000/svg">
<g clip-path="url(#clip0_4_40)">
<path d="M40 80C62.0914 80 80 62.0914 80 40C80 17.9086 62.0914 0 40 0C17.9086 0 0 17.9086 0 40C0 62.0914 17.9086 80 40 80Z" fill="#E9573E"/>
<path fill-rule="evenodd" clip-rule="evenodd" d="M30.1037 50.0714L50.6953 50.2642V54.9464L59.7594 59.2688L39.4526 78.3226L22.0273 58.4649L30.1037 55.0267V50.0714Z" fill="#F9DCA4"/>
<path fill-rule="evenodd" clip-rule="evenodd" d="M69.2274 67.3051C65.4897 71.3162 60.9653 74.5138 55.9366 76.6981C50.9078 78.8824 45.4828 80.0065 40.0001 80.0003C38.3397 80.0001 36.6809 79.8977 35.0331 79.6935C29.9796 78.9693 25.0901 77.3732 20.5826 74.9763C16.7785 72.859 13.3438 70.1374 10.413 66.918L12.0738 62.9051L26.7379 56.3627C27.8706 62.2345 32.2202 71.2948 39.9108 76.43C43.5078 74.2576 46.6294 71.3818 49.0889 67.9746C51.5483 64.5674 53.2949 60.6989 54.2241 56.6009L67.2507 62.9478L69.2274 67.3051Z" fill="#677079"/>
<path opacity="0.11" fill-rule="evenodd" clip-rule="evenodd" d="M51.5096 55.3335C52.452 55.7827 54.0636 56.5348 54.2202 56.6267C51.5924 64.8701 33.8707 67.8889 28.6461 55.6481L51.5096 55.3335Z" fill="black"/>
<path fill-rule="evenodd" clip-rule="evenodd" d="M40.2966 10.9153C67.8449 10.9153 57.1083 56.5672 40.2966 56.5672C24.4182 56.5672 12.7482 10.9153 40.2966 10.9153Z" fill="#FFE8BE"/>
<path fill-rule="evenodd" clip-rule="evenodd" d="M23.7736 31.1263C19.7994 32.8609 23.1781 41.0772 25.6791 41.0396C24.6418 37.8253 24.0019 34.4961 23.7736 31.1263Z" fill="#F9DCA4"/>
<path fill-rule="evenodd" clip-rule="evenodd" d="M57.1394 31.1263C61.1135 32.8597 57.7348 41.0772 55.2351 41.0396C56.2717 37.8252 56.9112 34.496 57.1394 31.1263Z" fill="#F9DCA4"/>
<path fill-rule="evenodd" clip-rule="evenodd" d="M30.2862 19.9832C29.5198 23.5664 29.7891 27.1289 26.3923 27.7865C25.5845 27.9418 25.0499 29.0357 24.8751 30.0001C24.4812 32.1038 24.3163 34.244 24.3832 36.3833C24.5179 37.1199 23.8706 34.9697 23.8706 34.9697L23.7606 30.8609C23.7606 30.8609 23.7127 30.0739 23.7308 28.8739C23.7696 26.4402 24.0467 22.4946 25.279 21.2881C27.1185 19.4887 30.2862 19.9832 30.2862 19.9832Z" fill="#AD835F"/>
<path fill-rule="evenodd" clip-rule="evenodd" d="M50.6086 19.9832C51.3749 23.5664 51.107 27.1289 54.5024 27.7865C55.3102 27.9418 55.8461 29.0357 56.0196 30.0001C56.3972 32.1124 56.5327 34.2609 56.4235 36.404C56.2876 37.1419 56.9348 34.9904 56.9348 34.9904L57.1497 30.8765C57.1497 30.8765 57.1821 30.0739 57.1626 28.8739C57.1264 26.4402 56.8494 22.4946 55.6157 21.2881C53.7762 19.4887 50.6086 19.9832 50.6086 19.9832Z" fill="#AD835F"/>
<path fill-rule="evenodd" clip-rule="evenodd" d="M32.8338 60.1646C30.8791 58.2785 29.3153 56.8157 27.8965 55.3516C26.0777 53.4733 25.4616 51.5691 25.1082 48.2345C24.3061 42.4721 23.8552 36.6664 23.758 30.8493C23.758 30.8493 25.0965 39.0474 27.5923 43.0888C28.8739 45.1639 34.1166 40.2862 36.2072 39.5445C36.9181 39.2156 37.7192 39.1366 38.4806 39.3204C39.242 39.5041 39.9189 39.9398 40.4014 40.5568C40.8752 39.9388 41.546 39.5015 42.3026 39.3173C43.0591 39.1332 43.8559 39.2133 44.5607 39.5445C46.6526 40.2862 51.8228 44.4532 53.1769 43.0888C56.4325 39.806 57.1342 30.861 57.1342 30.861C56.9981 36.7429 56.5101 42.6115 55.6727 48.4351C55.2028 51.9898 54.9646 53.3672 53.749 54.7575C51.9649 56.7613 49.9829 58.5799 47.8332 60.1853C46.7613 61.0345 44.8985 61.8319 40.1529 61.8034C35.7438 61.7776 33.9354 61.2274 32.8338 60.1646Z" fill="#60350A"/>
<path fill-rule="evenodd" clip-rule="evenodd" d="M51.2675 20.7082C51.954 20.5753 52.6648 20.6563 53.3037 20.9404C53.9427 21.2245 54.479 21.6978 54.8403 22.2965C56.8545 25.6791 57.0215 26.1153 57.0215 26.1153C57.0215 26.1153 56.7834 20.0648 56.6397 19.3451C56.8128 19.1856 57.0415 19.1001 57.2768 19.1069C57.5121 19.1137 57.7355 19.2121 57.8992 19.3813C58.0416 19.6687 57.3245 13.2971 53.582 12.0751C52.2138 8.18903 47.428 5.31006 47.428 5.31006L47.2118 7.46929C46.7299 6.00344 45.8262 4.71239 44.6138 3.7579C43.4014 2.80342 41.9343 2.22794 40.3962 2.10358C41.2597 3.07575 41.0526 3.78643 41.0526 3.78643C39.7057 3.22216 38.2563 2.94358 36.7962 2.9683C36.9775 4.11912 35.6454 5.34372 35.6454 5.34372C35.6454 5.34372 34.8182 4.08287 31.5431 3.6518C30.9671 5.73854 29.8862 6.09841 28.8441 7.07058C27.9686 7.9672 27.1632 8.92968 26.435 9.94956C26.435 9.94956 26.5425 7.93402 27.2622 7.35796C27.5328 7.17932 21.1573 9.69195 24.347 19.0551C23.7756 19.0412 23.2162 19.2205 22.7593 19.5639C22.3024 19.9074 21.9747 20.3949 21.8292 20.9477C23.6286 21.4512 22.8842 24.171 23.8913 25.9341C24.5994 23.8888 25.068 19.9043 29.4939 20.9477C32.6629 21.6946 35.705 23.2959 39.3581 23.424C44.5192 23.604 46.4791 20.8946 51.2675 20.7082Z" fill="#60350A"/>
<path fill-rule="evenodd" clip-rule="evenodd" d="M41.9613 49.96C42.4657 50.0446 42.9823 50.0204 43.4766 49.8891C43.9708 49.7578 44.4314 49.5225 44.8273 49.1989C45.7594 48.1244 46.5192 46.5982 45.1057 45.7775C43.7257 44.7975 42.1402 44.1458 40.47 43.872C38.7899 44.1412 37.1938 44.7922 35.8046 45.7749C34.07 46.7781 35.1315 48.1244 36.0648 49.1989C36.4608 49.5225 36.9213 49.7578 37.4156 49.8891C37.9099 50.0204 38.4265 50.0446 38.9309 49.96C37.881 46.3044 43.0124 46.3044 41.9613 49.96Z" fill="#FFE8BE"/>
</g>
<defs>
<clipPath id="clip0_4_40">
<rect width="80" height="80" fill="white"/>
</clipPath>
</defs>
</svg>
