<svg width="75" height="75" viewBox="0 0 75 75" fill="none" xmlns="http://www.w3.org/2000/svg">
<g clip-path="url(#clip0_4_2)">
<path d="M37.5 75C58.2107 75 75 58.2107 75 37.5C75 16.7893 58.2107 0 37.5 0C16.7893 0 0 16.7893 0 37.5C0 58.2107 16.7893 75 37.5 75Z" fill="#F2CF61"/>
<path d="M16.4062 15.576C16.4062 17.5096 17.9883 19.0916 19.9219 19.0916H47.4609H50.9766V22.6072C50.9766 22.6072 50.9766 44.2869 50.9766 51.9041C50.9766 52.49 50.3906 53.076 49.8047 53.076C42.1875 53.0725 19.9219 53.076 19.9219 53.076C17.9883 53.076 16.4062 51.4939 16.4062 49.5604V22.6072V15.576Z" fill="#233540"/>
<path d="M23.4375 19.0916H22.2656V53.076H23.4375V19.0916Z" fill="#1C2A33"/>
<path d="M26.9531 26.1229H25.7812V53.076H26.9531V26.1229Z" fill="#1C2A33"/>
<path d="M50.9766 21.4354V41.9432C50.9766 43.2322 49.9219 44.2869 48.6328 44.2869H28.125C26.8359 44.2869 25.7812 43.2322 25.7812 41.9432V25.5369C25.7812 23.1932 27.5391 21.4354 29.8828 21.4354H50.9766Z" fill="#1C2A33"/>
<path d="M50.9766 13.2322C50.9766 12.6463 50.3906 12.0604 49.8047 12.0604C49.2188 12.0604 47.4609 12.0604 47.4609 12.0604H19.9219C17.9883 12.0604 16.4062 13.6424 16.4062 15.576C16.4062 17.5096 17.9883 19.0916 19.9219 19.0916H47.4609H50.9766C50.9766 19.0916 50.9766 14.6971 50.9766 13.2322Z" fill="#406A80"/>
<path d="M23.4375 12.0604H22.2656V19.0916H23.4375V12.0604Z" fill="#395F73"/>
<path d="M19.9219 19.0916H22.2656V12.0604H19.9219C17.9883 12.0604 16.4062 13.6424 16.4062 15.576C16.4062 17.5096 17.9883 19.0916 19.9219 19.0916Z" fill="#E66356"/>
<path d="M19.9219 17.9197C18.6516 17.9197 17.5781 16.8463 17.5781 15.576C17.5781 14.3057 18.6516 13.2322 19.9219 13.2322H50.9766V17.9197H19.9219Z" fill="#F5F5F5"/>
<path d="M19.9219 53.076H22.2656V19.0916H19.9219C17.9883 19.0916 16.4062 17.5096 16.4062 15.576V22.6072V49.5604C16.4062 51.4939 17.9883 53.076 19.9219 53.076Z" fill="#CC584C"/>
<path d="M42.7734 34.3242H31.0547V35.4961H42.7734V34.3242Z" fill="#F5F5F5"/>
<path d="M43.3594 34.3242H28.125V35.4961H43.3594V34.3242Z" fill="#F5F5F5"/>
<path d="M26.9531 26.1229C26.9531 28.0564 28.5352 29.6385 30.4688 29.6385H56.25H59.7656V33.1541C59.7656 33.1541 59.7656 54.8338 59.7656 62.451C59.7656 63.0369 59.1797 63.6229 58.5938 63.6229C50.9766 63.6193 30.4688 63.6229 30.4688 63.6229C28.5352 63.6229 26.9531 62.0408 26.9531 60.1072V33.1541V26.1229Z" fill="#233540"/>
<path d="M33.9844 29.6385H32.8125V63.6229H33.9844V29.6385Z" fill="#1C2A33"/>
<path d="M59.7656 23.7791C59.7656 23.1932 59.1797 22.6072 58.5938 22.6072C58.0078 22.6072 56.25 22.6072 56.25 22.6072H30.4688C28.5352 22.6072 26.9531 24.1893 26.9531 26.1229C26.9531 28.0564 28.5352 29.6385 30.4688 29.6385H56.25H59.7656C59.7656 29.6385 59.7656 25.2439 59.7656 23.7791Z" fill="#406A80"/>
<path d="M33.9844 22.6072H32.8125V29.6385H33.9844V22.6072Z" fill="#395F73"/>
<path d="M30.4688 29.6385H32.8125V22.6072H30.4688C28.5352 22.6072 26.9531 24.1893 26.9531 26.1229C26.9531 28.0564 28.5352 29.6385 30.4688 29.6385Z" fill="#E66356"/>
<path d="M30.4688 28.4666C29.1984 28.4666 28.125 27.3932 28.125 26.1229C28.125 24.8525 29.1984 23.7791 30.4688 23.7791H59.7656V28.4666H30.4688Z" fill="#F5F5F5"/>
<path d="M30.4688 63.6229H32.8125V29.6385H30.4688C28.5352 29.6385 26.9531 28.0564 26.9531 26.1229V33.1541V60.1072C26.9531 62.0408 28.5352 63.6229 30.4688 63.6229Z" fill="#CC584C"/>
<path d="M50.9766 42.5273H41.6016V43.6992H50.9766V42.5273Z" fill="#F5F5F5"/>
<path d="M53.9062 44.8711H38.6719V46.043H53.9062V44.8711Z" fill="#F5F5F5"/>
</g>
<defs>
<clipPath id="clip0_4_2">
<rect width="75" height="75" fill="white"/>
</clipPath>
</defs>
</svg>
