<svg width="20" height="20" viewBox="0 0 20 20" fill="none" xmlns="http://www.w3.org/2000/svg">
<path d="M14.0182 4.27863C13.4072 3.57824 13.04 2.665 13.04 1.66663H12.2744C12.4716 2.75788 13.1212 3.69434 14.0182 4.27863Z" fill="black"/>
<path d="M6.93485 9.92064C5.60866 9.92064 4.52994 11.0003 4.52994 12.3276C4.52994 13.2525 5.05577 14.0573 5.82131 14.4597C5.5352 14.0651 5.36508 13.5814 5.36508 13.0551C5.36508 11.7278 6.4438 10.6481 7.77001 10.6481C8.01745 10.6481 8.25715 10.6906 8.48143 10.7603V7.8349C8.2494 7.80391 8.01358 7.78455 7.77001 7.78455C7.72746 7.78455 7.6888 7.78842 7.64626 7.78842V10.0328C7.41815 9.96314 7.18229 9.92064 6.93485 9.92064Z" fill="black"/>
<path d="M16.1871 5.56335V7.7884C14.7024 7.7884 13.326 7.31246 12.2047 6.50755V12.3314C12.2047 15.2375 9.84233 17.6058 6.93477 17.6058C5.81351 17.6058 4.76958 17.2498 3.9151 16.65C4.87783 17.6831 6.25041 18.3333 7.76993 18.3333C10.6736 18.3333 13.0398 15.9689 13.0398 13.0589V7.23505C14.1611 8.03996 15.5375 8.51587 17.0223 8.51587V5.6524C16.7323 5.6524 16.4538 5.6214 16.1871 5.56335Z" fill="black"/>
<path d="M12.2047 12.3314V6.50755C13.326 7.31247 14.7024 7.78841 16.1871 7.78841V5.56336C15.3287 5.38153 14.5749 4.91715 14.0182 4.27863C13.1212 3.69434 12.4753 2.75788 12.2704 1.66663H10.1748L10.1709 13.1479C10.1246 14.4326 9.06517 15.4659 7.76994 15.4659C6.9657 15.4659 6.25814 15.0673 5.81738 14.4636C5.05183 14.0573 4.526 13.2563 4.526 12.3314C4.526 11.0041 5.60472 9.92446 6.9309 9.92446C7.17835 9.92446 7.41807 9.96704 7.64232 10.0367V7.79228C4.79665 7.8542 2.5 10.1915 2.5 13.0589C2.5 14.4442 3.03743 15.7058 3.9151 16.65C4.76958 17.2498 5.81351 17.6058 6.93477 17.6058C9.83842 17.6058 12.2047 15.2375 12.2047 12.3314Z" fill="black"/>
</svg>
