<svg width="60" height="60" viewBox="0 0 60 60" fill="none" xmlns="http://www.w3.org/2000/svg">
<g clip-path="url(#clip0_1_3)">
<path fill-rule="evenodd" clip-rule="evenodd" d="M38.5529 9.21036C39.2757 9.487 39.7489 10.2076 39.7268 10.9985C39.7302 11.3461 39.7222 11.6286 39.7222 11.6286C39.7222 11.6286 39.3983 21.2581 28.0361 29.6273C23.414 33.0319 19.3166 38.719 18.1184 44.1541C17.9605 44.881 17.3908 45.4339 16.6762 45.5524C15.9615 45.6709 15.244 45.3321 14.8596 44.6939C11.8594 39.7372 8.5719 30.5778 14.8859 20.1881C20.5793 10.8202 30.6754 6.35121 38.5529 9.21036Z" fill="black"/>
<path fill-rule="evenodd" clip-rule="evenodd" d="M22.2562 50.2424C21.5009 49.9567 21.0046 49.2045 21.0283 48.3791C21.0234 48.0571 21.03 47.8037 21.03 47.8037C21.03 47.8037 21.3541 38.1745 32.7167 29.8057C37.2975 26.4319 41.3628 20.8161 42.6018 15.4266C42.7735 14.6754 43.3692 14.1084 44.1111 13.9932C44.8536 13.8772 45.5945 14.2346 45.9873 14.8983C48.9627 19.8899 52.1145 28.9652 45.8669 39.2447C40.1864 48.5887 30.1261 53.0588 22.2562 50.2424Z" fill="black"/>
</g>
<defs>
<clipPath id="clip0_1_3">
<rect width="60" height="60" fill="white"/>
</clipPath>
</defs>
</svg>
