<svg width="100" height="100" viewBox="0 0 100 100" fill="none" xmlns="http://www.w3.org/2000/svg">
<path d="M31.8167 43.1C31.8167 44.125 31.9292 44.9583 32.1208 45.5667C32.3417 46.175 32.6208 46.8417 33.0083 47.5625C33.1321 47.7524 33.2 47.9733 33.2042 48.2C33.2042 48.4792 33.0375 48.7542 32.6792 49.0333L30.9333 50.1958C30.7225 50.3476 30.472 50.4345 30.2125 50.4458C29.9333 50.4458 29.6583 50.3083 29.3792 50.0583C29.0054 49.6572 28.6719 49.2204 28.3833 48.7542C28.0727 48.2229 27.7863 47.6779 27.525 47.1208C25.3625 49.6708 22.6458 50.9458 19.375 50.9458C17.0458 50.9458 15.1917 50.2792 13.8333 48.95C12.475 47.6208 11.7833 45.8458 11.7833 43.6292C11.7833 41.275 12.6167 39.3625 14.3042 37.9208C15.9917 36.4792 18.2417 35.7583 21.0958 35.7583C22.0375 35.7583 23.0083 35.8417 24.0333 35.9792C25.0542 36.1125 26.1083 36.3375 27.2167 36.5833V34.5625C27.2167 32.4542 26.775 30.9875 25.9125 30.1292C25.0292 29.2667 23.5292 28.8542 21.3958 28.8542C20.425 28.8542 19.4292 28.9667 18.4042 29.2125C17.3859 29.4551 16.3861 29.7698 15.4125 30.1542C15.0965 30.2944 14.7723 30.4155 14.4417 30.5167C14.2986 30.563 14.1502 30.591 14 30.6C13.6125 30.6 13.4167 30.3208 13.4167 29.7417V28.3833C13.4167 27.9417 13.4708 27.6083 13.6125 27.4125C13.8209 27.1593 14.0865 26.9594 14.3875 26.8292C15.3542 26.3292 16.5167 25.9167 17.875 25.5833C19.288 25.2225 20.7417 25.046 22.2 25.0583C25.5 25.0583 27.9083 25.8083 29.4625 27.3042C30.9875 28.8 31.7625 31.075 31.7625 34.1208V43.1H31.8167ZM20.5667 47.3125C21.4833 47.3125 22.425 47.1458 23.4208 46.8125C24.4167 46.4792 25.3042 45.8708 26.0542 45.0375C26.4958 44.5125 26.8292 43.9292 26.9958 43.2625C27.1625 42.5958 27.275 41.7917 27.275 40.85V39.6875C26.4326 39.4853 25.58 39.3281 24.7208 39.2167C23.8572 39.1061 22.9874 39.0504 22.1167 39.05C20.2583 39.05 18.9 39.4083 17.9875 40.1583C17.0708 40.9083 16.6292 41.9583 16.6292 43.3458C16.6292 44.65 16.9625 45.6167 17.6542 46.2833C18.3208 46.9792 19.2917 47.3125 20.5667 47.3125ZM42.8208 50.3042C42.3208 50.3042 41.9875 50.2208 41.7667 50.025C41.5458 49.8583 41.35 49.4708 41.1833 48.9458L34.6708 27.5208C34.5042 26.9667 34.4208 26.6042 34.4208 26.4125C34.4208 25.9708 34.6417 25.7208 35.0875 25.7208H37.8042C38.3292 25.7208 38.6917 25.8042 38.8833 26C39.1042 26.1667 39.2708 26.5542 39.4375 27.0792L44.0958 45.425L48.4208 27.0792C48.5583 26.525 48.725 26.1625 48.9458 26C49.2778 25.7951 49.6648 25.6977 50.0542 25.7208H52.2708C52.7958 25.7208 53.1583 25.8042 53.3792 26C53.6 26.1667 53.7958 26.5542 53.9042 27.0792L58.2833 45.65L63.0792 27.0792C63.2458 26.525 63.4375 26.1625 63.6333 26C63.9546 25.7954 64.3323 25.6976 64.7125 25.7208H67.2917C67.7333 25.7208 67.9833 25.9417 67.9833 26.4125C67.9833 26.55 67.9542 26.6917 67.9292 26.8542C67.8851 27.0902 67.8196 27.3217 67.7333 27.5458L61.0542 48.9708C60.8875 49.525 60.6958 49.8875 60.4708 50.05C60.1576 50.2516 59.7887 50.3493 59.4167 50.3292H57.0333C56.5083 50.3292 56.1458 50.2458 55.925 50.05C55.7042 49.8542 55.5083 49.4958 55.4 48.9417L51.1042 31.0667L46.8375 48.9167C46.7 49.4708 46.5333 49.8333 46.3125 50.025C46.0917 50.2167 45.7042 50.3042 45.2042 50.3042H42.8208ZM78.4375 51.0542C76.9958 51.0542 75.5542 50.8875 74.1708 50.5542C72.7833 50.2208 71.7042 49.8625 70.9833 49.4458C70.5417 49.1958 70.2333 48.9208 70.125 48.6708C70.0163 48.4269 69.9595 48.1629 69.9583 47.8958V46.4833C69.9583 45.9 70.1792 45.625 70.5958 45.625C70.7625 45.625 70.9292 45.6542 71.0958 45.7083C71.2625 45.7625 71.5125 45.875 71.7875 45.9875C72.7292 46.4042 73.7542 46.7375 74.8375 46.9583C75.9458 47.1792 77.025 47.2917 78.1375 47.2917C79.8833 47.2917 81.2417 46.9875 82.1833 46.375C82.6349 46.1027 83.0063 45.7155 83.2595 45.2529C83.5128 44.7903 83.6389 44.2689 83.625 43.7417C83.6342 43.3846 83.5727 43.0291 83.444 42.6959C83.3153 42.3627 83.1219 42.0582 82.875 41.8C82.375 41.275 81.4333 40.8042 80.075 40.3583L76.0542 39.1125C74.0292 38.475 72.5333 37.5333 71.6208 36.2875C70.7273 35.1371 70.2394 33.7233 70.2333 32.2667C70.2333 31.1042 70.4833 30.0792 70.9833 29.1917C71.4833 28.3042 72.1458 27.5292 72.9792 26.9208C73.8125 26.2833 74.7542 25.8125 75.8625 25.4792C76.9667 25.1375 78.1292 25 79.35 25C79.9583 25 80.5958 25.0292 81.2083 25.1125C81.8458 25.1958 82.4292 25.3083 83.0083 25.4167C83.5625 25.5542 84.0875 25.6958 84.5875 25.8583C85.0875 26.025 85.475 26.1917 85.75 26.3583C86.1375 26.5792 86.4167 26.8 86.5833 27.05C86.75 27.2708 86.8333 27.575 86.8333 27.9667V29.2708C86.8333 29.8542 86.6125 30.1583 86.1958 30.1583C85.8264 30.1154 85.4686 30.0023 85.1417 29.825C83.4668 29.0852 81.6516 28.717 79.8208 28.7458C78.2417 28.7458 76.9958 28.9958 76.1333 29.5208C75.275 30.0458 74.8292 30.85 74.8292 31.9875C74.8292 32.7625 75.1083 33.4292 75.6625 33.9542C76.2167 34.4792 77.2417 35.0083 78.7125 35.4792L82.65 36.725C84.6458 37.3625 86.0875 38.25 86.9458 39.3875C87.8042 40.525 88.2208 41.825 88.2208 43.2667C88.2208 44.4583 87.9708 45.5375 87.5 46.4833C87 47.425 86.3375 48.2583 85.475 48.9208C84.5606 49.6327 83.5161 50.1592 82.4 50.4708C81.15 50.8583 79.85 51.0542 78.4375 51.0542Z" fill="black"/>
<path fill-rule="evenodd" clip-rule="evenodd" d="M83.675 64.5208C74.5583 71.2542 61.3083 74.8292 49.9167 74.8292C33.9542 74.8292 19.5667 68.925 8.70417 59.1125C7.84583 58.3375 8.62083 57.2833 9.64583 57.8917C21.3958 64.7083 35.8917 68.8375 50.8875 68.8375C61.0042 68.8375 72.1167 66.7292 82.3458 62.4083C83.8667 61.725 85.1708 63.4125 83.675 64.5208Z" fill="black"/>
<path fill-rule="evenodd" clip-rule="evenodd" d="M87.4708 60.2C86.3083 58.7042 79.7667 59.4792 76.8 59.8417C75.9125 59.9542 75.775 59.175 76.5792 58.5958C81.7917 54.9375 90.3542 55.9917 91.35 57.2083C92.3458 58.4542 91.0708 67.0208 86.1958 71.1208C85.4458 71.7583 84.725 71.425 85.0583 70.5958C86.1667 67.85 88.6333 61.6667 87.4708 60.2Z" fill="black"/>
</svg>
