<svg width="100" height="58" viewBox="0 0 100 58" fill="none" xmlns="http://www.w3.org/2000/svg">
<g clip-path="url(#clip0_2_2)">
<path d="M99.7523 25.9449V31.807H80.7585V2.31069H87.4458V25.9449H99.7523ZM11.935 31.807C15.1932 31.8072 18.3596 30.725 20.9383 28.7298C23.517 26.7346 25.3625 23.939 26.1858 20.7807L42.8421 33.8075L59.4892 20.7807V31.8101H78.483V25.9449H66.1765V2.31069H59.4892V13.3369L43.5232 25.8364L39.9505 23.0449L47.5944 17.0588L55.9195 10.5455L51.1672 6.82353L35.1981 19.323L31.6285 16.5315L47.5944 4.03208L42.8421 0.310158L26.1858 13.3369C25.3646 10.1785 23.5213 7.38194 20.9443 5.38508C18.3673 3.38821 15.2022 2.30373 11.9443 2.30139H0V31.7976L11.935 31.807ZM6.68731 25.9449V8.17272H11.935C16.3715 8.17272 19.9845 12.1521 19.9845 17.0588C19.9845 21.9656 16.3715 25.9449 11.935 25.9449H6.68731Z" fill="#0076CE"/>
<path d="M99.7523 50.8384C99.7523 49.0767 98.774 48.292 96.8173 47.9012C94.8607 47.5104 93.6873 47.3119 93.6873 45.941C93.6873 44.9609 94.4706 44.3716 95.839 44.3716C97.6006 44.3716 98.1889 45.1563 98.1889 46.1364L98.3839 46.3318H99.1641L99.3622 46.1364C99.3622 44.1762 97.7957 43.3914 95.839 43.3914C93.6873 43.3914 92.5139 44.5701 92.5139 45.941C92.5139 47.4918 93.6873 48.292 95.644 48.6828C97.6006 49.0736 98.5789 49.2721 98.5789 50.8384C98.5789 51.8185 97.9907 52.6032 96.0341 52.6032C94.2755 52.6032 93.4923 51.6231 93.4923 50.4476L93.2972 50.2522H92.5139L92.3189 50.4476C92.3189 52.2124 93.6873 53.5833 96.0341 53.5833C98.5789 53.5833 99.7492 52.4078 99.7492 50.8384M91.3313 48.8813L91.5263 48.6828V48.0966C91.5263 45.3517 89.9629 43.3914 87.2229 43.3914C84.483 43.3914 82.9195 45.3517 82.9195 48.0966V48.4874C82.9195 51.2323 84.291 53.5833 87.4211 53.5833C90.1579 53.5833 91.1362 51.8185 91.3313 50.643L91.1362 50.4476H90.3529L90.1579 50.643C89.7678 51.8185 88.9845 52.6032 87.4211 52.6032C84.8762 52.6032 84.0929 50.2522 84.0929 49.0767L84.291 48.8813H91.3313ZM90.1579 47.9012H84.3003L84.1022 47.7058C84.1022 46.3318 84.8855 44.3716 87.2322 44.3716C89.579 44.3716 90.3622 46.3318 90.3622 47.7058L90.1579 47.9012ZM81.5511 53.1925V43.7853L81.356 43.5868H80.5728L80.3777 43.7853V53.1925L80.5728 53.3879H81.356L81.5511 53.1925ZM81.5511 41.8251V40.6496L81.356 40.4542H80.5728L80.3777 40.6496V41.8251L80.5728 42.0205H81.356L81.5511 41.8251ZM74.1207 52.6032C72.1641 52.6032 70.9907 51.2323 70.9907 48.4874C70.9907 45.7425 72.1641 44.3716 74.1207 44.3716C76.0774 44.3716 77.2508 45.7456 77.2508 48.4874C77.2508 51.2292 76.0774 52.6032 74.1207 52.6032ZM77.2508 52.0139C77.2508 54.5634 76.6625 56.5236 74.3158 56.5236C72.5573 56.5236 71.969 55.7389 71.774 54.7588L71.5789 54.5634H70.7957L70.6006 54.7588C70.7957 56.3282 71.969 57.5037 74.3158 57.5037C76.8607 57.5037 78.4241 55.9343 78.4241 52.0139V43.7853L78.2291 43.5868H77.6409L77.4458 43.7853L77.2508 44.9609H77.0557C76.6625 44.1762 75.6842 43.3914 73.9257 43.3914C71.1858 43.3914 69.8173 45.5471 69.8173 48.4874C69.8173 51.4277 71.1858 53.5833 73.9257 53.5833C75.6842 53.5833 76.6625 52.7986 77.0557 52.0139H77.2508ZM64.5356 44.3716C66.4923 44.3716 67.8607 45.941 67.8607 48.4874C67.8607 51.0338 66.4923 52.6032 64.5356 52.6032C62.5789 52.6032 61.2105 51.0524 61.2105 48.4874C61.2105 45.9224 62.5789 44.3716 64.5356 44.3716ZM64.5356 53.5833C67.0805 53.5833 69.0341 51.8185 69.0341 48.4874C69.0341 45.1563 67.0805 43.3914 64.5356 43.3914C61.9907 43.3914 60.0372 45.1563 60.0372 48.4874C60.0372 51.8185 61.9938 53.5833 64.5356 53.5833ZM58.6687 53.1925V39.8556L58.4706 39.6602H57.6904L57.4923 39.8556V53.1925L57.6904 53.3879H58.4706L58.6687 53.1925ZM51.6254 44.3716C53.582 44.3716 54.9505 45.941 54.9505 48.4874C54.9505 51.0338 53.582 52.6032 51.6254 52.6032C49.6687 52.6032 48.3003 51.0524 48.3003 48.4874C48.3003 45.9224 49.6687 44.3716 51.6254 44.3716ZM51.6254 53.5833C54.1703 53.5833 56.1269 51.8185 56.1269 48.4874C56.1269 45.1563 54.1796 43.3914 51.6316 43.3914C49.0836 43.3914 47.1331 45.1563 47.1331 48.4874C47.1331 51.8185 49.0898 53.5833 51.6316 53.5833M45.9598 53.1925V47.2995C45.9598 44.7531 44.5913 43.379 42.4396 43.379C41.0681 43.379 39.8947 43.9683 39.3096 44.9485H39.1115L38.9195 43.7729L38.7214 43.5744H38.1362L37.9381 43.7729V53.1925L38.1362 53.3879H38.9195L39.1115 53.1925V47.9012C39.1115 45.7456 40.0929 44.3716 42.2415 44.3716C43.8081 44.3716 44.7864 45.3517 44.7864 47.3119V53.2049L44.9814 53.4003H45.7647L45.9598 53.1925ZM35.9814 53.1925V47.2995C35.9814 44.7531 34.613 43.379 32.4613 43.379C31.0929 43.379 29.9195 43.9683 29.3313 44.9485H29.1362V39.8649L28.9412 39.6695H28.1734L27.9783 39.8649V53.2018L28.1734 53.3972H28.9567L29.1517 53.2018V47.9012C29.1517 45.7456 30.13 44.3716 32.2817 44.3716C33.8483 44.3716 34.8235 45.3517 34.8235 47.3119V53.2049L35.0217 53.4003H35.805L35.9814 53.1925ZM19.161 48.4874C19.161 45.7456 20.5294 44.3716 22.4861 44.3716C24.4427 44.3716 25.2229 45.5471 25.4211 46.7226L25.6161 46.9211H26.3994L26.5944 46.7226C26.3994 44.7655 24.8328 43.3914 22.4861 43.3914C19.9443 43.3914 17.9876 44.9609 17.9876 48.4874C17.9876 52.0139 19.9443 53.5833 22.4861 53.5833C24.8328 53.5833 26.3994 52.2124 26.5944 50.2522L26.3994 50.0568H25.6161L25.4211 50.2522C25.2229 51.4277 24.4427 52.6032 22.4861 52.6032C20.5294 52.6032 19.161 51.2323 19.161 48.4874ZM16.9938 48.8813L17.1889 48.6828V48.0966C17.1889 45.3517 15.6223 43.3914 12.8854 43.3914C10.1486 43.3914 8.58204 45.3517 8.58204 48.0966V48.4874C8.58204 51.2323 9.95046 53.5833 13.0805 53.5833C15.8204 53.5833 16.7957 51.8185 16.9938 50.643L16.7957 50.4476H16.031L15.8359 50.643C15.4427 51.8185 14.6625 52.6032 13.096 52.6032C10.5542 52.6032 9.7709 50.2522 9.7709 49.0767L9.96594 48.8813H16.9938ZM15.8204 47.9012H9.93808L9.74303 47.7058C9.74303 46.3318 10.5263 44.3716 12.8731 44.3716C15.2198 44.3716 16.0031 46.3318 16.0031 47.7058L15.8204 47.9012ZM10.5573 40.4573V39.868L10.3622 39.6726H0.195046L0 39.868V40.4573L0.195046 40.6527H4.49845L4.6935 40.8481V53.1925L4.89164 53.3879H5.67492L5.86997 53.1925V40.845L6.06502 40.6496H10.3684L10.5573 40.4573Z" fill="#0076CE"/>
</g>
<defs>
<clipPath id="clip0_2_2">
<rect width="100" height="58" fill="white"/>
</clipPath>
</defs>
</svg>
