<svg width="20" height="20" viewBox="0 0 20 20" fill="none" xmlns="http://www.w3.org/2000/svg">
<g clip-path="url(#clip0_2_35)">
<path fill-rule="evenodd" clip-rule="evenodd" d="M10 15C12.7614 15 15 12.7614 15 10C15 7.23857 12.7614 5 10 5C7.23857 5 5 7.23857 5 10C5 12.7614 7.23857 15 10 15ZM10 13.3333C11.8409 13.3333 13.3333 11.8409 13.3333 10C13.3333 8.15905 11.8409 6.66667 10 6.66667C8.15905 6.66667 6.66667 8.15905 6.66667 10C6.66667 11.8409 8.15905 13.3333 10 13.3333Z" fill="#0F0F0F"/>
<path d="M15 4.16663C14.5398 4.16663 14.1667 4.53973 14.1667 4.99996C14.1667 5.46019 14.5398 5.83329 15 5.83329C15.4603 5.83329 15.8333 5.46019 15.8333 4.99996C15.8333 4.53973 15.4603 4.16663 15 4.16663Z" fill="#0F0F0F"/>
<path fill-rule="evenodd" clip-rule="evenodd" d="M1.37829 3.56342C0.833328 4.63298 0.833328 6.03312 0.833328 8.83337V11.1667C0.833328 13.967 0.833328 15.3671 1.37829 16.4366C1.85766 17.3775 2.62256 18.1424 3.56338 18.6217C4.63294 19.1667 6.03307 19.1667 8.83333 19.1667H11.1667C13.9669 19.1667 15.3671 19.1667 16.4366 18.6217C17.3774 18.1424 18.1423 17.3775 18.6217 16.4366C19.1667 15.3671 19.1667 13.967 19.1667 11.1667V8.83337C19.1667 6.03312 19.1667 4.63298 18.6217 3.56342C18.1423 2.62261 17.3774 1.85771 16.4366 1.37834C15.3671 0.833374 13.9669 0.833374 11.1667 0.833374H8.83333C6.03307 0.833374 4.63294 0.833374 3.56338 1.37834C2.62256 1.85771 1.85766 2.62261 1.37829 3.56342ZM11.1667 2.50004H8.83333C7.40569 2.50004 6.4352 2.50134 5.68506 2.56262C4.95436 2.62232 4.58069 2.73053 4.32003 2.86335C3.69282 3.18293 3.18289 3.69287 2.8633 4.32007C2.73049 4.58074 2.62228 4.95441 2.56258 5.68511C2.50129 6.43525 2.49999 7.40574 2.49999 8.83337V11.1667C2.49999 12.5944 2.50129 13.5648 2.56258 14.315C2.62228 15.0457 2.73049 15.4194 2.8633 15.68C3.18289 16.3072 3.69282 16.8171 4.32003 17.1367C4.58069 17.2695 4.95436 17.3778 5.68506 17.4375C6.4352 17.4987 7.40569 17.5 8.83333 17.5H11.1667C12.5943 17.5 13.5647 17.4987 14.3149 17.4375C15.0457 17.3778 15.4193 17.2695 15.68 17.1367C16.3072 16.8171 16.8171 16.3072 17.1367 15.68C17.2695 15.4194 17.3777 15.0457 17.4374 14.315C17.4987 13.5648 17.5 12.5944 17.5 11.1667V8.83337C17.5 7.40574 17.4987 6.43525 17.4374 5.68511C17.3777 4.95441 17.2695 4.58074 17.1367 4.32007C16.8171 3.69287 16.3072 3.18293 15.68 2.86335C15.4193 2.73053 15.0457 2.62232 14.3149 2.56262C13.5647 2.50134 12.5943 2.50004 11.1667 2.50004Z" fill="#0F0F0F"/>
</g>
<defs>
<clipPath id="clip0_2_35">
<rect width="20" height="20" fill="white"/>
</clipPath>
</defs>
</svg>
