<svg width="100" height="100" viewBox="0 0 100 100" fill="none" xmlns="http://www.w3.org/2000/svg">
<g clip-path="url(#clip0_12_38)">
<path d="M13.8889 60.7639C13.8889 60.7639 18.3028 76.6722 19.4445 84.325C20.7334 92.9667 29.3639 99.8 50 99.8C70.6361 99.8 79.2667 92.9639 80.5556 84.325C81.6972 76.6722 86.1111 60.7639 86.1111 60.7639H13.8889Z" fill="#BBDDF5"/>
<path d="M14.1499 61.025C14.8443 64.4111 16.0777 66.5639 17.8832 65.4528C19.6888 64.3417 22.4666 64.9167 21.6166 67.1889C20.836 69.2722 24.3082 70.2278 25.7832 69.0111C27.1971 67.8472 30.1027 66.5639 30.3832 69.1834C30.6443 71.6139 33.6277 72.2667 34.9832 70.4861C36.3721 68.6639 40.1916 69.3917 40.886 71.6139C41.5805 73.8361 45.3138 73.525 46.3555 71.9611C47.3416 70.4806 48.336 69.5028 49.9999 69.5028V69.4445C51.6666 69.4445 52.6582 70.4806 53.6443 71.9611C54.686 73.5222 58.4193 73.8361 59.1138 71.6139C59.8082 69.3917 63.6277 68.6639 65.0166 70.4861C66.3749 72.2667 69.3555 71.6139 69.6166 69.1834C69.8971 66.5639 72.8027 67.8445 74.2166 69.0111C75.6916 70.2278 79.1638 69.2722 78.3832 67.1889C77.5305 64.9167 80.311 64.3417 82.1166 65.4528C83.9221 66.5639 85.1555 64.4111 85.8499 61.025H14.1499Z" fill="#662113"/>
<path d="M91.6666 52.6917C91.6666 39.0278 72.9693 27.9528 49.9082 27.9528C26.8443 27.9528 8.1499 39.0278 8.1499 52.6917C8.1499 63.7167 33.1499 69.4445 49.9082 69.4445C66.6666 69.4445 91.6666 63.8889 91.6666 52.6917Z" fill="#C1694F"/>
<path d="M50 98.6111C49.6317 98.6111 49.2784 98.4648 49.0179 98.2043C48.7575 97.9439 48.6111 97.5906 48.6111 97.2222V73.2056C48.6111 72.8372 48.7575 72.484 49.0179 72.2235C49.2784 71.963 49.6317 71.8167 50 71.8167C50.3684 71.8167 50.7216 71.963 50.9821 72.2235C51.2426 72.484 51.3889 72.8372 51.3889 73.2056V97.2222C51.3889 97.5906 51.2426 97.9439 50.9821 98.2043C50.7216 98.4648 50.3684 98.6111 50 98.6111ZM31.3917 95.0889C31.0542 95.0884 30.7285 94.9653 30.475 94.7425C30.2216 94.5197 30.0577 94.2124 30.0139 93.8778L27.15 71.7056C27.1035 71.34 27.2036 70.9708 27.4285 70.6788C27.6533 70.3868 27.9847 70.1957 28.35 70.1473C28.5311 70.1227 28.7153 70.1344 28.8919 70.1816C29.0684 70.2288 29.2338 70.3106 29.3785 70.4222C29.5232 70.5338 29.6443 70.6731 29.7348 70.8319C29.8253 70.9907 29.8833 71.1659 29.9056 71.3472L32.7695 93.5195C32.7942 93.7153 32.7771 93.9142 32.7193 94.103C32.6615 94.2917 32.5642 94.4661 32.434 94.6144C32.3037 94.7628 32.1435 94.8818 31.9638 94.9636C31.7841 95.0454 31.5891 95.0881 31.3917 95.0889ZM40.2222 97.8C39.8738 97.7998 39.5381 97.6686 39.2818 97.4324C39.0256 97.1962 38.8675 96.8723 38.8389 96.525L36.8722 72.8556C36.8573 72.6737 36.8783 72.4907 36.9341 72.317C36.9898 72.1433 37.0793 71.9822 37.1973 71.8431C37.3153 71.7039 37.4596 71.5894 37.6218 71.506C37.7841 71.4226 37.9612 71.3719 38.1431 71.357C38.3249 71.342 38.5079 71.363 38.6817 71.4188C38.8554 71.4746 39.0164 71.564 39.1556 71.682C39.2947 71.8 39.4093 71.9443 39.4927 72.1066C39.5761 72.2688 39.6267 72.446 39.6417 72.6278L41.6084 96.2972C41.6383 96.6641 41.5215 97.0278 41.2834 97.3085C41.0454 97.5893 40.7057 97.764 40.3389 97.7945L40.2222 97.8ZM23.6695 89.3528C23.4292 89.3524 23.1964 89.2689 23.0106 89.1166C22.8248 88.9642 22.6974 88.7523 22.65 88.5167L18.4834 67.8556C18.4562 67.7217 18.4557 67.5838 18.482 67.4497C18.5082 67.3156 18.5606 67.1881 18.6362 67.0743C18.7118 66.9605 18.8091 66.8627 18.9225 66.7866C19.036 66.7105 19.1633 66.6574 19.2972 66.6306C19.8472 66.4972 20.4084 66.8806 20.525 67.4445L24.6917 88.1056C24.7227 88.2569 24.7195 88.4133 24.6824 88.5632C24.6454 88.7132 24.5753 88.853 24.4774 88.9725C24.3795 89.0919 24.2561 89.1881 24.1164 89.2539C23.9766 89.3197 23.8239 89.3535 23.6695 89.3528ZM68.3917 94.775C68.1924 94.7755 67.9953 94.733 67.8139 94.6505C67.6324 94.568 67.4709 94.4474 67.3402 94.297C67.2095 94.1465 67.1127 93.9697 67.0564 93.7785C67.0001 93.5873 66.9856 93.3862 67.0139 93.1889L70.1528 71.3306C70.2098 70.9682 70.406 70.6423 70.6997 70.4223C70.9933 70.2023 71.3612 70.1057 71.725 70.1528C71.9056 70.1787 72.0793 70.2399 72.2362 70.3329C72.3932 70.4259 72.5302 70.5489 72.6396 70.6949C72.749 70.8409 72.8285 71.0071 72.8737 71.1838C72.9188 71.3605 72.9287 71.5445 72.9028 71.725L69.7639 93.5834C69.7165 93.9137 69.5518 94.216 69.2998 94.4348C69.0478 94.6536 68.7254 94.7744 68.3917 94.775ZM59.9417 97.8L59.825 97.7945C59.4582 97.764 59.1185 97.5893 58.8805 97.3085C58.6425 97.0278 58.5256 96.6641 58.5556 96.2972L60.5222 72.6278C60.5834 71.8611 61.3334 71.3111 62.0195 71.3584C62.3863 71.3888 62.726 71.5636 62.964 71.8443C63.202 72.125 63.3189 72.4888 63.2889 72.8556L61.3222 96.525C61.2943 96.8721 61.1368 97.196 60.881 97.4322C60.6252 97.6684 60.2899 97.7998 59.9417 97.8ZM76.5611 89.4667C76.4078 89.467 76.2563 89.4334 76.1175 89.3683C75.9787 89.3031 75.856 89.208 75.7583 89.0899C75.6606 88.9717 75.5902 88.8334 75.5523 88.6848C75.5144 88.5362 75.5098 88.3811 75.5389 88.2306L79.5334 67.4556C79.5589 67.3213 79.6106 67.1934 79.6856 67.0792C79.7605 66.9649 79.8573 66.8666 79.9702 66.7897C80.0832 66.7128 80.2102 66.659 80.344 66.6312C80.4778 66.6034 80.6158 66.6023 80.75 66.6278C80.8843 66.6533 81.0122 66.7051 81.1264 66.78C81.2407 66.855 81.339 66.9517 81.4159 67.0647C81.4928 67.1777 81.5466 67.3047 81.5744 67.4385C81.6022 67.5723 81.6033 67.7102 81.5778 67.8445L77.5834 88.6195C77.5386 88.8578 77.4119 89.073 77.2252 89.2277C77.0385 89.3824 76.8036 89.467 76.5611 89.4667Z" fill="#88C9F9"/>
<path d="M46.9779 -0.0305481C46.9779 -0.0305481 49.9973 3.14723 53.0196 3.21112C59.3196 3.34723 65.1168 6.8639 65.1168 12.95C65.1168 12.95 79.7307 12.95 80.2362 25.9333C80.2362 25.9333 87.6112 26.0583 89.3001 38.9111C90.5612 48.5111 80.8612 61.7639 50.0001 61.6278C22.7918 61.5083 8.87235 51.8389 10.7001 38.9167C12.4612 26.4722 22.7946 25.9361 22.7946 25.9361C22.7946 25.9361 21.0279 9.70556 40.9307 9.70834C40.9307 9.70834 42.9473 3.21667 46.9779 -0.0305481Z" fill="#FFE8B6"/>
<path d="M49.7499 29.1778C57.9055 26.1 65.3693 20.525 65.1193 12.9528C65.1193 10.5694 64.211 8.59721 62.7527 7.04999C64.5388 14.85 52.611 23.7167 39.4221 25.1222C22.9193 26.8805 24.8082 17.1444 24.8082 17.1444L24.7888 17.1639C22.336 21.4305 22.7971 25.9389 22.7971 25.9389C25.311 32.5583 38.286 33.5055 49.7499 29.1778Z" fill="#FFCC4D"/>
<path d="M80.2362 25.9361C80.2195 25.5389 80.1529 25.1917 80.1112 24.8194C79.789 22.9389 78.8529 20.6361 77.9612 18.8805C77.4334 18.1444 76.8501 17.4944 76.2112 16.9305C79.2918 29.225 60.7584 44.0111 43.0723 47.4361C20.0196 51.8972 10.7001 38.9222 10.7001 38.9222C9.75011 45.6305 13.0834 51.4472 20.2807 55.5222C48.689 67.1028 80.4834 38.5917 80.2362 25.9361Z" fill="#FFCC4D"/>
<path d="M24.1361 39.4472L20.8556 43.9305C20.4189 44.5234 19.7653 44.9193 19.0377 45.0317C18.31 45.1441 17.5674 44.964 16.9722 44.5305C16.3794 44.0939 15.9835 43.4403 15.8711 42.7127C15.7586 41.985 15.9388 41.2424 16.3722 40.6472L19.6528 36.1639C20.0894 35.571 20.743 35.1751 21.4707 35.0627C22.1983 34.9503 22.9409 35.1305 23.5361 35.5639C24.7695 36.4667 25.0389 38.2139 24.1361 39.4472Z" fill="#DD2E44"/>
<path d="M41.486 22.7417L36.0527 21.5778C35.3334 21.4219 34.7052 20.9875 34.3054 20.3695C33.9056 19.7516 33.7668 19.0005 33.9194 18.2805C34.2388 16.7861 35.7249 15.825 37.2166 16.1472L42.6499 17.3111C44.1444 17.6305 45.1055 19.1167 44.7833 20.6083C44.628 21.328 44.1938 21.9567 43.5757 22.3566C42.9576 22.7565 42.2061 22.895 41.486 22.7417Z" fill="#55ACEE"/>
<path d="M45.6417 39.3694L49.2889 43.5611C50.2917 44.7139 50.1695 46.4778 49.0167 47.4805C48.46 47.9622 47.7352 48.2039 47.0008 48.1529C46.2665 48.1019 45.5821 47.7623 45.0973 47.2083L41.4501 43.0167C40.9684 42.4599 40.7267 41.7352 40.7777 41.0008C40.8287 40.2664 41.1683 39.582 41.7223 39.0972C42.279 38.6156 43.0038 38.3738 43.7381 38.4249C44.4725 38.4759 45.1569 38.8155 45.6417 39.3694Z" fill="#77B255"/>
<path d="M67.6999 31.9417L62.5027 33.9055C61.8133 34.1637 61.0498 34.1386 60.379 33.8357C59.7081 33.5328 59.1843 32.9767 58.9221 32.2889C58.6639 31.5995 58.689 30.8361 58.992 30.1652C59.2949 29.4943 59.851 28.9705 60.5388 28.7083L65.736 26.7444C66.4253 26.4863 67.1888 26.5114 67.8597 26.8143C68.5306 27.1172 69.0543 27.6733 69.3166 28.3611C69.5747 29.0504 69.5496 29.8139 69.2467 30.4848C68.9438 31.1557 68.3877 31.6795 67.6999 31.9417Z" fill="#F4900C"/>
<path d="M84.3501 39.0306L81.5723 43.8417C80.8084 45.1639 79.1001 45.6222 77.7779 44.8583C77.1416 44.4884 76.6775 43.8817 76.487 43.1708C76.2965 42.4598 76.3951 41.7024 76.7612 41.0639L79.539 36.2528C80.3029 34.9306 82.0112 34.4722 83.3334 35.2361C84.6556 36 85.114 37.7056 84.3501 39.0306Z" fill="#AA8DD8"/>
</g>
<defs>
<clipPath id="clip0_12_38">
<rect width="100" height="100" fill="white"/>
</clipPath>
</defs>
</svg>
